<svg width="36" height="36" viewBox="0 0 36 36" fill="none" xmlns="http://www.w3.org/2000/svg">
<path d="M30.9375 3.9375H5.0625C4.44023 3.9375 3.9375 4.44023 3.9375 5.0625V30.9375C3.9375 31.5598 4.44023 32.0625 5.0625 32.0625H30.9375C31.5598 32.0625 32.0625 31.5598 32.0625 30.9375V5.0625C32.0625 4.44023 31.5598 3.9375 30.9375 3.9375ZM12.2801 27.9035H8.10703V14.4809H12.2801V27.9035ZM10.1953 12.6457C9.71693 12.6457 9.24929 12.5038 8.85153 12.2381C8.45377 11.9723 8.14375 11.5945 7.96068 11.1526C7.77761 10.7106 7.72971 10.2243 7.82304 9.75508C7.91637 9.28589 8.14673 8.85491 8.485 8.51664C8.82327 8.17837 9.25425 7.94801 9.72344 7.85468C10.1926 7.76135 10.679 7.80925 11.1209 7.99232C11.5629 8.17539 11.9407 8.48541 12.2064 8.88317C12.4722 9.28093 12.6141 9.74857 12.6141 10.227C12.6105 11.5629 11.5277 12.6457 10.1953 12.6457ZM27.9035 27.9035H23.734V21.375C23.734 19.8176 23.7059 17.8172 21.5648 17.8172C19.3957 17.8172 19.0617 19.5117 19.0617 21.2625V27.9035H14.8957V14.4809H18.8965V16.316H18.9527C19.5082 15.2613 20.8688 14.1469 22.9008 14.1469C27.1266 14.1469 27.9035 16.9277 27.9035 20.5418V27.9035Z" fill="black"/>
</svg>
