<svg width="36" height="36" viewBox="0 0 36 36" fill="none" xmlns="http://www.w3.org/2000/svg">
<path d="M32.625 8.94025C31.5492 9.40431 30.3785 9.7383 29.1727 9.86837C30.4246 9.12459 31.3622 7.94954 31.8094 6.56369C30.6346 7.26255 29.3476 7.75261 28.0055 8.01212C27.4445 7.41245 26.7661 6.93472 26.0125 6.60871C25.2588 6.2827 24.4461 6.11539 23.625 6.1172C20.3027 6.1172 17.6309 8.81017 17.6309 12.1149C17.6309 12.5789 17.6871 13.043 17.7785 13.4895C12.8039 13.2293 8.36719 10.8527 5.41758 7.21408C4.88013 8.13206 4.59849 9.17729 4.60196 10.241C4.60196 12.3223 5.66016 14.1574 7.27383 15.2367C6.32287 15.1993 5.39418 14.9379 4.56329 14.4738V14.5477C4.56329 17.4621 6.62344 19.8774 9.36915 20.4328C8.85361 20.5667 8.32327 20.6352 7.79063 20.6367C7.4004 20.6367 7.03126 20.5981 6.6586 20.5453C7.41797 22.9219 9.6293 24.6481 12.2625 24.7043C10.2023 26.318 7.62188 27.2672 4.81993 27.2672C4.31719 27.2672 3.85313 27.2496 3.37149 27.1934C6.0293 28.8985 9.18282 29.8828 12.5789 29.8828C23.6039 29.8828 29.6367 20.7492 29.6367 12.8215C29.6367 12.5613 29.6367 12.3012 29.6191 12.041C30.7863 11.1867 31.8094 10.1285 32.625 8.94025Z" fill="black"/>
</svg>
