<svg width="36" height="36" viewBox="0 0 36 36" fill="none" xmlns="http://www.w3.org/2000/svg">
<path d="M17.96 8C19.6168 8 20.96 6.65685 20.96 5C20.96 3.34315 19.6168 2 17.96 2C16.3031 2 14.96 3.34315 14.96 5C14.96 6.65685 16.3031 8 17.96 8Z" fill="white"/>
<path d="M30 10H6C5.73478 10 5.48043 10.1054 5.29289 10.2929C5.10536 10.4804 5 10.7348 5 11C5 11.2652 5.10536 11.5196 5.29289 11.7071C5.48043 11.8946 5.73478 12 6 12H14V20.36L10.11 33.17C10.0319 33.4233 10.0575 33.6972 10.1813 33.9316C10.305 34.166 10.5168 34.3417 10.77 34.42C10.8665 34.4291 10.9635 34.4291 11.06 34.42C11.2819 34.4295 11.5006 34.3648 11.6816 34.2363C11.8627 34.1077 11.9958 33.9226 12.06 33.71L15.35 22.87H20.73L24 33.75C24.0642 33.9626 24.1973 34.1477 24.3784 34.2763C24.5594 34.4049 24.7781 34.4695 25 34.46C25.0965 34.4691 25.1935 34.4691 25.29 34.46C25.5432 34.3817 25.755 34.206 25.8787 33.9716C26.0025 33.7372 26.0281 33.4633 25.95 33.21L22 20.4V12H30C30.2652 12 30.5196 11.8946 30.7071 11.7071C30.8946 11.5196 31 11.2652 31 11C31 10.7348 30.8946 10.4804 30.7071 10.2929C30.5196 10.1054 30.2652 10 30 10Z" fill="white"/>
</svg>
