<svg width="32" height="36" viewBox="0 0 32 36" fill="none" xmlns="http://www.w3.org/2000/svg">
<g clip-path="url(#clip0_6_72)">
<path d="M28.125 2.25H3.375C1.51172 2.25 0 3.76172 0 5.625V30.375C0 32.2383 1.51172 33.75 3.375 33.75H28.125C29.9883 33.75 31.5 32.2383 31.5 30.375V5.625C31.5 3.76172 29.9883 2.25 28.125 2.25ZM19.7367 26.8031C16.7555 30.0516 11.2992 30.0797 8.31797 26.8031C3.53672 21.6281 6.92578 13.0148 14.0273 13.0148C14.9625 13.0148 15.8977 13.1625 16.7766 13.4859C16.4742 14.0766 16.2633 14.7234 16.1859 15.3914C15.5039 15.1031 14.7656 14.9695 14.0273 14.9695C10.5961 14.9695 8.07891 17.9016 8.07891 21.2203C8.07891 24.2437 10.0828 26.7539 12.9656 27.2602C17.2898 25.5727 18.0914 18.9914 18.0914 14.9555C18.0914 14.4422 18.0914 13.9148 18.0492 13.4016C17.2617 11.0883 16.1789 8.85938 14.9414 6.75703C16.8469 8.04375 17.8875 11.1516 18.0492 13.3734V13.4016C18.5906 14.9836 18.8789 16.65 18.8789 18.3234C18.8789 22.1273 17.3391 25.2844 14.0766 27.3375L13.9078 27.3516C17.4234 27.4219 19.9688 24.6375 19.9688 21.2203C19.9688 20.3625 19.8211 19.5117 19.4836 18.7102C20.1516 18.5766 20.7844 18.3164 21.3398 17.9719C22.4156 20.5453 22.2258 24.1102 19.7367 26.8031ZM21.7266 16.432C20.7914 16.432 19.9617 15.9328 19.3078 15.3C20.8477 14.4563 22.7953 13.1414 23.6883 11.5734C23.7937 11.3625 23.9766 10.9688 24.0047 10.7297C23.1258 12.6914 20.8969 14.2312 18.8086 14.7164C18.4781 14.2031 18.2812 13.6266 18.2812 13.0078C18.2812 12.2836 18.6469 11.3133 19.1883 10.7859C20.707 9.34453 22.9148 10.1883 24.2789 7.27031C26.5641 10.5188 25.2 16.432 21.7266 16.432Z" fill="black"/>
</g>
<defs>
<clipPath id="clip0_6_72">
<rect width="31.5" height="36" fill="white"/>
</clipPath>
</defs>
</svg>
